<?xml version="1.0" standalone="no"?>
<!DOCTYPE svg PUBLIC "-//W3C//DTD SVG 20010904//EN"
 "http://www.w3.org/TR/2001/REC-SVG-20010904/DTD/svg10.dtd">
<svg version="1.0" xmlns="http://www.w3.org/2000/svg"
 width="1000.000000pt" height="1000.000000pt" viewBox="0 0 1000.000000 1000.000000"
 preserveAspectRatio="xMidYMid meet">
<metadata>
Created by potrace 1.14, written by Peter Selinger 2001-2017
</metadata>
<g transform="translate(0.000000,1000.000000) scale(0.100000,-0.100000)"
fill="#000000" stroke="none">
<path d="M4749 9876 c-2 -2 -48 -7 -102 -10 -54 -4 -114 -9 -135 -11 -20 -2
-59 -7 -87 -10 -27 -3 -61 -7 -75 -9 -31 -6 -144 -22 -215 -32 -11 -1 -20 -3
-20 -4 0 -1 -11 -3 -25 -6 -14 -2 -48 -9 -76 -14 -28 -6 -62 -13 -76 -15 -38
-7 -293 -73 -352 -91 -89 -28 -320 -105 -351 -119 -16 -7 -77 -32 -135 -55
-58 -24 -151 -65 -208 -91 -56 -27 -107 -49 -112 -49 -6 0 -10 -5 -10 -10 0
-6 -3 -9 -7 -8 -8 2 -84 -33 -93 -43 -3 -3 -23 -14 -45 -26 -57 -29 -110 -59
-188 -107 -37 -22 -76 -46 -85 -51 -37 -22 -166 -107 -178 -118 -7 -7 -36 -28
-64 -47 -54 -37 -191 -140 -225 -168 -11 -9 -63 -53 -115 -97 -102 -85 -420
-399 -485 -479 -22 -26 -49 -58 -60 -71 -41 -46 -71 -82 -119 -145 -27 -36
-53 -66 -58 -68 -4 -2 -8 -10 -8 -17 0 -7 -4 -15 -8 -17 -20 -8 -249 -354
-332 -503 -96 -169 -290 -582 -290 -615 0 -4 -7 -21 -15 -37 -13 -26 -74 -191
-80 -217 -1 -6 -5 -18 -8 -26 -7 -20 -28 -88 -31 -103 -2 -7 -6 -19 -9 -27
-20 -50 -103 -403 -101 -427 1 -7 -1 -13 -5 -13 -4 0 -7 -8 -7 -17 -1 -22 -11
-90 -18 -123 -11 -47 -18 -103 -41 -295 -14 -116 -20 -275 -20 -495 0 -269 6
-379 30 -580 11 -86 13 -102 19 -140 3 -19 8 -53 12 -75 3 -22 7 -50 10 -63 2
-12 6 -32 8 -45 3 -12 7 -33 10 -47 3 -14 10 -47 16 -75 15 -75 17 -83 40
-170 11 -44 22 -88 25 -98 37 -153 157 -488 248 -692 44 -100 178 -367 193
-385 6 -8 29 -46 49 -85 21 -38 42 -71 47 -73 4 -2 8 -8 8 -14 0 -6 14 -30 30
-55 17 -24 30 -48 30 -54 0 -5 4 -9 9 -9 5 0 16 -15 24 -32 9 -18 25 -43 36
-55 12 -12 21 -25 21 -28 0 -5 45 -69 78 -110 4 -5 18 -26 32 -45 13 -19 29
-42 37 -50 7 -8 51 -62 99 -120 175 -214 448 -493 601 -615 14 -11 37 -30 52
-43 46 -41 265 -209 288 -220 12 -7 27 -18 35 -25 25 -25 208 -144 338 -220
93 -54 210 -117 217 -117 5 0 15 -6 22 -12 6 -7 15 -13 19 -14 7 0 178 -81
232 -109 50 -26 309 -124 435 -165 72 -24 137 -45 145 -48 8 -3 20 -6 25 -7 6
-2 51 -14 100 -28 87 -25 196 -51 249 -61 14 -3 29 -7 34 -10 4 -2 26 -7 48
-10 21 -3 64 -10 94 -16 30 -6 70 -13 89 -15 19 -3 50 -7 70 -10 122 -19 174
-25 406 -45 102 -9 710 -6 755 4 14 3 57 7 95 10 39 3 79 7 90 10 11 2 47 7
80 11 32 4 68 9 80 11 11 2 37 6 59 9 168 22 593 125 731 178 17 6 35 12 42
13 37 6 358 134 487 194 46 22 90 40 95 40 6 0 11 5 11 10 0 6 6 10 13 10 6 0
23 6 37 13 199 107 295 160 360 202 143 91 416 278 430 294 3 3 39 33 80 65
216 171 499 444 650 627 25 29 51 60 57 67 7 7 13 18 13 23 0 5 7 9 15 9 8 0
15 4 15 9 0 7 85 122 134 182 7 9 32 43 55 77 22 33 45 64 51 67 6 4 8 11 5
16 -4 5 -1 9 5 9 6 0 18 16 26 35 8 19 19 35 24 35 5 0 12 11 16 25 3 14 10
25 14 25 4 0 13 14 20 30 7 17 16 30 21 30 5 0 9 4 9 9 0 5 30 62 68 128 37
65 78 141 92 168 14 28 28 52 33 53 4 2 7 8 7 13 0 5 20 51 43 102 65 137 74
157 118 269 46 115 138 380 145 417 3 13 9 32 15 43 5 10 7 18 3 18 -3 0 -1 7
6 15 7 8 10 15 7 15 -3 0 7 47 23 105 16 58 29 109 29 113 1 6 13 70 16 82 2
7 14 69 19 100 3 14 8 36 11 50 9 43 18 100 30 205 3 33 8 67 10 75 2 8 7 51
10 95 4 44 10 123 15 175 8 94 5 554 -4 639 -2 24 -7 74 -11 110 -3 36 -8 84
-11 106 -2 22 -7 58 -10 80 -6 53 -11 87 -24 165 -11 65 -14 83 -24 130 -3 14
-11 50 -17 80 -24 120 -95 382 -126 465 -8 22 -17 50 -19 63 -5 23 -70 198
-104 277 -9 22 -30 72 -45 110 -16 39 -35 79 -42 90 -7 11 -13 27 -13 36 0 10
-3 19 -7 21 -5 2 -34 55 -66 118 -69 136 -86 169 -152 278 -27 46 -54 91 -60
100 -27 47 -60 98 -64 102 -4 3 -35 48 -70 100 -36 52 -67 97 -71 100 -3 3
-38 48 -77 100 -40 52 -82 107 -95 121 -13 15 -42 49 -65 77 -131 153 -346
369 -506 507 -22 19 -131 110 -150 125 -10 8 -27 22 -37 30 -10 8 -28 22 -40
30 -12 8 -28 20 -34 25 -50 46 -286 205 -431 292 -150 89 -325 185 -325 177 0
-3 -14 4 -30 16 -17 12 -36 23 -43 24 -7 1 -46 18 -87 38 -85 40 -122 56 -200
87 -30 12 -64 26 -75 31 -36 15 -108 41 -185 67 -41 13 -82 27 -90 30 -8 4
-17 7 -20 8 -3 0 -32 9 -65 19 -33 10 -67 20 -75 21 -8 2 -16 4 -17 5 -2 2 -6
3 -10 4 -5 2 -26 8 -48 14 -22 6 -49 13 -60 15 -11 2 -38 9 -60 15 -22 6 -51
13 -65 16 -42 9 -173 35 -200 40 -14 3 -25 5 -25 6 0 1 -13 3 -30 6 -47 6 -90
12 -90 14 0 1 -28 6 -105 16 -77 10 -102 12 -180 19 -41 3 -86 8 -100 11 -28
6 -645 15 -651 10z"/>
</g>
</svg>
